<?xml version="1.0" encoding="utf-8"?>
<!-- Generator: Adobe Illustrator 16.0.0, SVG Export Plug-In . SVG Version: 6.00 Build 0)  -->
<!DOCTYPE svg PUBLIC "-//W3C//DTD SVG 1.1//EN" "http://www.w3.org/Graphics/SVG/1.1/DTD/svg11.dtd">
<svg version="1.1" id="Layer_1" xmlns="http://www.w3.org/2000/svg" xmlns:xlink="http://www.w3.org/1999/xlink" x="0px" y="0px"
	 width="64px" height="64px" viewBox="0 0 64 64" enable-background="new 0 0 64 64" xml:space="preserve">
<g>
	<path fill="#FF3333" d="M54.258,10.556c0.269,1.352,0.533,2.705,0.802,4.057c0.117,0.591,0.231,1.183,0.357,1.828
		c-12.52,0-24.979,0-37.459,0c0.022,0.139,0.033,0.229,0.051,0.319c0.333,1.686,0.668,3.372,1.002,5.059
		c0.107,0.541,0.105,0.541,0.683,0.541c12.059,0,24.119,0,36.178,0c0.248,0,0.496,0,0.759,0c0.604,3.09,1.199,6.132,1.808,9.239
		c-12.527,0-24.985,0-37.462,0c0.019,0.135,0.024,0.214,0.04,0.29c0.655,3.281,1.315,6.562,1.957,9.846
		c0.063,0.317,0.229,0.423,0.501,0.512c4.781,1.576,9.559,3.163,14.342,4.732c0.202,0.065,0.472,0.054,0.672-0.021
		c4.067-1.536,8.128-3.088,12.189-4.637c0.192-0.073,0.381-0.16,0.57-0.24c-0.301-1.517-0.593-2.992-0.896-4.526
		c0.217,0,0.36,0,0.505,0c2.74,0,5.48,0.01,8.22-0.01c0.387-0.003,0.516,0.116,0.586,0.479c0.35,1.795,0.715,3.586,1.072,5.378
		c1.402-3.528,2.181-7.373,2.181-11.401C62.916,23.67,59.615,16.115,54.258,10.556z"/>
	<path fill="#FF3333" d="M40.411,56.73c-0.188,0.071-0.441,0.071-0.634,0.01c-2.049-0.664-4.092-1.347-6.136-2.025
		c-6.043-2.007-12.085-4.015-18.13-6.014c-0.258-0.086-0.374-0.197-0.428-0.477c-0.333-1.752-0.694-3.499-1.043-5.248
		c-1.1-5.509-2.198-11.019-3.298-16.528c-0.924-4.629-1.85-9.259-2.775-13.889C3.665,17.871,1.083,24.633,1.083,32
		c0,17.074,13.842,30.916,30.917,30.916c10.142,0,19.143-4.884,24.78-12.427C51.324,52.569,45.869,54.654,40.411,56.73z"/>
	<path fill="#FF3333" d="M28.488,7.223c7.332,0,14.663,0,21.995-0.007C45.327,3.365,38.93,1.084,32,1.084
		c-6.935,0-13.335,2.283-18.493,6.138C18.501,7.223,23.495,7.223,28.488,7.223z"/>
</g>
</svg>
